<mxfile host="app.diagrams.net" modified="2024-02-23T12:53:18.353Z" agent="Mozilla/5.0 (X11; Linux x86_64) AppleWebKit/537.36 (KHTML, like Gecko) Chrome/121.0.0.0 Safari/537.36" version="23.1.6" etag="PMOUK-whLLCGO3LYt3qx" type="github">
  <diagram name="Page-1" id="su3Unhtr4W7y5myPqnzo">
    <mxGraphModel>
      <root>
        <mxCell id="0" />
        <mxCell id="1" parent="0" />
      </root>
    </mxGraphModel>
  </diagram>
</mxfile>
